<?xml version="1.0" encoding="UTF-8"?>
<!-- Generated by Pixelmator Pro 3.5.7 -->
<svg width="500" height="500" viewBox="0 0 500 500" xmlns="http://www.w3.org/2000/svg">
    <path id="Oval" fill="#027aff" fill-rule="evenodd" stroke="none" d="M 437 237 C 437 139.797882 353.724976 61 251 61 C 148.27504 61 65 139.797882 65 237 C 65 334.202118 148.27504 413 251 413 C 353.724976 413 437 334.202118 437 237 Z"/>
    <clipPath id="clipPath1">
        <path d="M 102.369789 83.999985 L 397.369789 83.999985 L 397.369789 390.666672 L 102.369789 390.666672 Z"/>
    </clipPath>
    <g id="Group" clip-path="url(#clipPath1)">
        <path id="Path" fill="#3d3b3a" fill-rule="evenodd" stroke="none" d="M 212.880203 89.526062 C 215.270828 88.927094 217.677078 88.385437 220.09375 87.901062 C 222.510422 87.416687 224.9375 86.994812 227.380203 86.630219 C 229.817703 86.265625 232.265625 85.958344 234.71875 85.713562 C 237.171875 85.463562 239.630203 85.28125 242.088547 85.151062 C 244.552078 85.026062 247.015625 84.958344 249.484375 84.953125 C 251.947922 84.942719 254.411453 84.994812 256.875 85.109375 C 259.338531 85.223969 261.796875 85.395844 264.255219 85.625 C 266.708344 85.859375 269.15625 86.151062 271.598969 86.5 C 274.036469 86.854187 276.46875 87.265625 278.890625 87.734375 C 281.307281 88.203125 283.71875 88.729187 286.114594 89.317719 C 288.505219 89.901062 290.885406 90.546875 293.25 91.25 C 295.614594 91.947937 297.958344 92.708344 300.286469 93.526062 C 302.614594 94.338562 304.916656 95.213562 307.203125 96.140625 C 309.489594 97.067719 311.75 98.052094 313.984375 99.088562 C 316.223969 100.125 318.432281 101.21875 320.614594 102.359375 C 322.802094 103.505219 324.953125 104.703125 327.078125 105.953125 C 329.208344 107.203125 331.302094 108.505219 333.364594 109.854187 C 335.427094 111.208344 337.453125 112.609375 339.447906 114.057312 C 341.442719 115.510437 343.401031 117.005219 345.322906 118.552094 C 347.244781 120.098969 349.125 121.6875 350.96875 123.322937 C 352.8125 124.958344 354.619781 126.640625 356.380219 128.364594 C 358.140625 130.088562 359.864594 131.854187 361.536469 133.661469 C 363.213531 135.473969 364.848969 137.317719 366.432281 139.208344 C 368.020844 141.09375 369.5625 143.015625 371.057281 144.979187 C 372.546875 146.942719 373.994781 148.9375 375.390625 150.973969 C 376.786469 153.005219 378.130219 155.067719 379.427094 157.166687 C 380.723969 159.265625 381.96875 161.390625 383.161469 163.552094 C 384.354156 165.708344 385.494781 167.895844 386.583344 170.109375 C 387.666656 172.322937 388.697906 174.557312 389.677094 176.822937 C 390.65625 179.088562 391.578125 181.375 392.442719 183.682312 C 393.3125 185.989594 394.119781 188.317719 394.875 190.666687 C 395.630219 193.015625 396.322906 195.380219 396.963531 197.760437 C 397.197906 198.640625 397.432281 199.536469 397.65625 200.447937 L 395.328125 201.260437 C 395.088531 200.302094 394.848969 199.348969 394.588531 198.390625 C 393.958344 196.03125 393.265625 193.6875 392.520844 191.359375 C 391.776031 189.036469 390.96875 186.729187 390.109375 184.4375 C 389.25 182.151062 388.333344 179.885437 387.364594 177.645844 C 386.390625 175.401062 385.364594 173.182312 384.286469 170.989594 C 383.208344 168.796875 382.072906 166.635437 380.890625 164.494812 C 379.703125 162.359375 378.46875 160.255219 377.177094 158.177094 C 375.890625 156.098969 374.552094 154.057312 373.161469 152.046875 C 371.770844 150.036469 370.333344 148.057312 368.848969 146.119812 C 367.364594 144.177094 365.833344 142.276062 364.255219 140.411469 C 362.677094 138.541687 361.052094 136.71875 359.385406 134.932312 C 357.713531 133.145844 356.005219 131.401062 354.25 129.697937 C 352.494781 127.994812 350.703125 126.338562 348.869781 124.723969 C 347.03125 123.109375 345.161469 121.541687 343.25 120.020844 C 341.338531 118.494812 339.390625 117.020844 337.40625 115.59375 C 335.421875 114.166687 333.40625 112.786469 331.354156 111.458344 C 329.302094 110.130219 327.21875 108.854187 325.104156 107.625 C 322.989594 106.401062 320.848969 105.229187 318.677094 104.104187 C 316.505219 102.984375 314.307281 101.916687 312.083344 100.901062 C 309.864594 99.885437 307.614594 98.927094 305.34375 98.026062 C 303.072906 97.119812 300.78125 96.270844 298.46875 95.479187 C 296.15625 94.6875 293.828125 93.953125 291.479156 93.276062 C 289.130219 92.598969 286.770844 91.979187 284.390625 91.416687 C 282.010406 90.854187 279.619781 90.348969 277.21875 89.90625 C 274.817719 89.463562 272.401031 89.072937 269.979156 88.75 C 267.557281 88.421875 265.130219 88.15625 262.697906 87.947937 C 260.260406 87.739594 257.822906 87.588562 255.380203 87.5 C 252.9375 87.411469 250.494797 87.385437 248.052078 87.416687 C 245.609375 87.447937 243.166672 87.536469 240.729172 87.6875 C 238.286453 87.838562 235.854172 88.046875 233.427078 88.317719 C 230.994797 88.588562 228.572922 88.916687 226.161453 89.307312 C 223.75 89.692719 221.348953 90.140625 218.958328 90.645844 C 216.567703 91.151062 214.1875 91.71875 211.822922 92.338562 C 212.192703 91.411469 212.552078 90.479187 212.880203 89.53125 Z M 104.697914 273.5625 C 104.895836 274.348969 105.09375 275.125 105.302086 275.90625 C 105.9375 278.276062 106.630211 280.625 107.380211 282.958344 C 108.130211 285.291687 108.9375 287.604187 109.796875 289.895844 C 110.661461 292.1875 111.578125 294.458344 112.552086 296.708344 C 113.53125 298.953125 114.557289 301.177094 115.640625 303.375 C 116.723961 305.572937 117.859375 307.739594 119.052086 309.885437 C 120.239586 312.026062 121.484375 314.135437 122.776039 316.21875 C 124.072914 318.296875 125.416664 320.34375 126.807289 322.359375 C 128.203125 324.375 129.645828 326.354187 131.135422 328.296875 C 132.630203 330.239594 134.166672 332.145844 135.75 334.015625 C 137.338547 335.885437 138.963547 337.713562 140.640625 339.5 C 142.3125 341.291687 144.03125 343.036469 145.791672 344.739594 C 147.552078 346.442719 149.354172 348.104187 151.197922 349.71875 C 153.036453 351.333344 154.916672 352.90625 156.838547 354.427094 C 158.755203 355.953125 160.708328 357.427094 162.703125 358.854187 C 164.692703 360.28125 166.71875 361.661469 168.776047 362.989594 C 170.833328 364.317719 172.927078 365.59375 175.046875 366.817719 C 177.166672 368.046875 179.317703 369.21875 181.5 370.338562 C 183.677078 371.458344 185.880203 372.520844 188.114578 373.536469 C 190.34375 374.546875 192.598953 375.505219 194.880203 376.40625 C 197.15625 377.307312 199.453125 378.151062 201.776047 378.9375 C 204.09375 379.723969 206.432297 380.458344 208.786453 381.130219 C 211.145828 381.802094 213.515625 382.421875 215.901047 382.979187 C 218.286453 383.53125 220.682297 384.03125 223.09375 384.473969 C 225.505203 384.911469 227.927078 385.291687 230.354172 385.609375 C 232.78125 385.932312 235.21875 386.192719 237.661453 386.395844 C 240.104172 386.59375 242.546875 386.734375 244.994797 386.817719 C 247.442703 386.901062 249.895828 386.921875 252.34375 386.880219 C 254.791672 386.84375 257.239594 386.744812 259.6875 386.583344 C 262.130219 386.421875 264.567719 386.203125 267.005219 385.927094 C 269.4375 385.645844 271.864594 385.307312 274.28125 384.911469 C 276.697906 384.510437 279.104156 384.057312 281.5 383.541687 C 283.895844 383.026062 286.276031 382.447937 288.640625 381.817719 C 288.260406 382.744812 287.890625 383.682312 287.546875 384.630219 C 285.151031 385.239594 282.744781 385.791687 280.322906 386.286469 C 277.901031 386.776062 275.46875 387.208344 273.026031 387.583344 C 270.583344 387.958344 268.135406 388.276062 265.677094 388.526062 C 263.21875 388.78125 260.755219 388.979187 258.286469 389.114594 C 255.817703 389.25 253.348953 389.322937 250.875 389.338562 C 248.40625 389.354187 245.9375 389.307312 243.463547 389.203125 C 240.994797 389.09375 238.53125 388.932312 236.072922 388.703125 C 233.609375 388.479187 231.15625 388.192719 228.708328 387.848969 C 226.260422 387.505219 223.822922 387.098969 221.395828 386.635437 C 218.96875 386.171875 216.552078 385.645844 214.151047 385.067719 C 211.75 384.484375 209.364578 383.84375 206.994797 383.145844 C 204.619797 382.447937 202.270828 381.692719 199.9375 380.880219 C 197.598953 380.067719 195.286453 379.203125 192.994797 378.276062 C 190.703125 377.348969 188.4375 376.369812 186.192703 375.338562 C 183.947922 374.302094 181.729172 373.213562 179.541672 372.067719 C 177.348953 370.921875 175.1875 369.729187 173.052078 368.479187 C 170.921875 367.229187 168.817703 365.932312 166.75 364.578125 C 164.682297 363.229187 162.645828 361.828125 160.645828 360.380219 C 158.645828 358.927094 156.677078 357.432312 154.75 355.885437 C 152.822922 354.338562 150.932297 352.744812 149.083328 351.109375 C 147.229172 349.46875 145.421875 347.786469 143.651047 346.0625 C 141.885422 344.338562 140.15625 342.567719 138.473953 340.760437 C 136.791672 338.947937 135.15625 337.098969 133.5625 335.208344 C 131.96875 333.317719 130.421875 331.390625 128.927078 329.427094 C 127.427086 327.463562 125.973961 325.463562 124.572914 323.427094 C 123.171875 321.390625 121.822914 319.322937 120.520836 317.21875 C 119.21875 315.119812 117.973961 312.984375 116.776039 310.822937 C 115.578125 308.661469 114.4375 306.473969 113.34375 304.255219 C 112.255211 302.036469 111.21875 299.791687 110.239586 297.526062 C 109.255211 295.255219 108.333336 292.963562 107.463539 290.651062 C 106.59375 288.338562 105.78125 286.005219 105.026039 283.651062 C 104.270836 281.296875 103.572914 278.927094 102.932289 276.541687 C 102.739586 275.822937 102.557289 275.098969 102.369789 274.380219 Z"/>
    </g>
    <g id="g1">
        <g id="g2">
            <g id="g3">
                <path id="path1" fill="#000000" stroke="none" d="M 126.657845 226.048004 C 127.209923 226.298004 127.642212 226.631348 127.949509 227.048004 C 128.267212 227.464691 128.42868 227.943848 128.42868 228.485504 C 128.42868 229.558441 128.074509 230.339691 127.366173 230.839691 C 126.668259 231.339691 125.793259 231.589691 124.741173 231.589691 L 121.241173 231.589691 L 121.241173 221.068848 L 124.324509 221.068848 C 125.449509 221.068848 126.329712 221.298004 126.970345 221.756348 C 127.605759 222.204254 127.928673 222.855316 127.928673 223.714691 C 127.928673 224.245941 127.814087 224.709473 127.595345 225.110504 C 127.371384 225.501129 127.058884 225.813629 126.657845 226.048004 Z M 123.324509 225.381348 L 124.574509 225.381348 C 124.949509 225.381348 125.241173 225.266754 125.449509 225.027191 C 125.668259 224.792816 125.782845 224.501129 125.782845 224.152191 C 125.782845 223.808441 125.657845 223.542816 125.407845 223.360504 C 125.168259 223.167816 124.845345 223.068848 124.428673 223.068848 L 123.324509 223.068848 Z M 124.637009 229.652191 C 125.121384 229.652191 125.517212 229.558441 125.824509 229.360504 C 126.126595 229.167816 126.282845 228.876129 126.282845 228.485504 C 126.282845 227.751129 125.689087 227.381348 124.512009 227.381348 L 123.324509 227.381348 L 123.324509 229.652191 Z"/>
            </g>
        </g>
    </g>
    <g id="g4">
        <g id="g5">
            <g id="g6">
                <path id="path2" fill="#000000" stroke="none" d="M 147.616226 231.589691 L 145.387054 228.235504 L 144.012054 228.235504 L 144.012054 231.589691 L 141.928726 231.589691 L 141.928726 221.068848 L 145.116226 221.068848 C 146.418304 221.068848 147.433929 221.391754 148.157898 222.027191 C 148.876648 222.652191 149.241226 223.516754 149.241226 224.610504 C 149.241226 225.266754 149.100601 225.876129 148.824554 226.443848 C 148.558929 227.016754 148.142273 227.459473 147.574554 227.777191 L 150.012054 231.589691 Z M 144.012054 226.235504 L 145.470398 226.235504 C 146.038101 226.235504 146.449554 226.079254 146.699554 225.756348 C 146.959976 225.423004 147.095398 225.068848 147.095398 224.693848 C 147.095398 224.308441 146.980804 223.938629 146.762054 223.589691 C 146.538101 223.245941 146.116226 223.068848 145.491226 223.068848 L 144.012054 223.068848 Z"/>
            </g>
        </g>
    </g>
    <g id="g7">
        <g id="g8">
            <g id="g9">
                <path id="path3" fill="#000000" stroke="none" d="M 165.027725 227.693848 C 165.027725 228.027191 165.121475 228.350098 165.319397 228.652191 C 165.527725 228.959473 165.798553 229.209473 166.131897 229.402191 C 166.465225 229.600098 166.8246 229.693848 167.215225 229.693848 C 167.616272 229.693848 167.991272 229.600098 168.340225 229.402191 C 168.683975 229.209473 168.954803 228.959473 169.152725 228.652191 C 169.345428 228.350098 169.444397 228.027191 169.444397 227.693848 L 169.444397 221.068848 L 171.486053 221.068848 L 171.486053 227.735504 C 171.486053 228.501129 171.288147 229.188629 170.902725 229.798004 C 170.527725 230.396973 170.0121 230.860504 169.361053 231.193848 C 168.704803 231.527191 167.991272 231.693848 167.215225 231.693848 C 166.423553 231.693848 165.6996 231.527191 165.048553 231.193848 C 164.407928 230.860504 163.902725 230.396973 163.527725 229.798004 C 163.152725 229.188629 162.965225 228.501129 162.965225 227.735504 L 162.965225 221.068848 L 165.027725 221.068848 Z"/>
            </g>
        </g>
    </g>
    <g id="g10">
        <g id="g11">
            <g id="g12">
                <path id="path4" fill="#000000" stroke="none" d="M 193.314453 230.714691 C 193.048828 230.938629 192.626953 231.162598 192.04361 231.381348 C 191.460281 231.589691 190.82486 231.693848 190.147781 231.693848 C 189.048828 231.693848 188.090485 231.459473 187.272781 230.985504 C 186.465485 230.516754 185.845703 229.876129 185.41861 229.068848 C 184.986328 228.266754 184.772781 227.381348 184.772781 226.423004 C 184.772781 225.370941 184.986328 224.423004 185.41861 223.589691 C 185.845703 222.756348 186.444656 222.110504 187.210281 221.652191 C 187.986328 221.193848 188.882156 220.964691 189.897781 220.964691 C 190.533203 220.964691 191.126953 221.048004 191.66861 221.214691 C 192.210281 221.381348 192.689453 221.600098 193.10611 221.860504 L 192.272781 223.818848 C 191.522781 223.251129 190.751953 222.964691 189.960281 222.964691 C 189.429031 222.964691 188.929031 223.110504 188.460281 223.402191 C 188.001953 223.693848 187.632156 224.100098 187.35611 224.610504 C 187.07486 225.126129 186.939453 225.688629 186.939453 226.298004 C 186.939453 226.980316 187.064453 227.579254 187.314453 228.089691 C 187.57486 228.589691 187.944656 228.985504 188.41861 229.277191 C 188.902985 229.558441 189.460281 229.693848 190.085281 229.693848 C 190.611328 229.693848 191.07486 229.610504 191.48111 229.443848 C 191.897781 229.277191 192.220703 229.084473 192.460281 228.860504 Z"/>
            </g>
        </g>
    </g>
    <g id="g13">
        <g id="g14">
            <g id="g15">
                <path id="path5" fill="#000000" stroke="none" d="M 214.008118 221.068848 L 214.008118 223.068848 L 208.903961 223.068848 L 208.903961 225.318848 L 213.403961 225.318848 L 213.403961 227.318848 L 208.903961 227.318848 L 208.903961 229.589691 L 214.195618 229.589691 L 214.195618 231.589691 L 206.820618 231.589691 L 206.820618 221.068848 Z"/>
            </g>
        </g>
    </g>
    <g id="g16">
        <g id="g17">
            <g id="g18">
                <path id="path6" fill="#000000" stroke="none" d="M 233.404678 223.610504 C 232.488007 223.110504 231.685928 222.860504 231.008835 222.860504 C 230.550507 222.860504 230.196335 222.954254 229.946335 223.131348 C 229.696335 223.313629 229.571335 223.584473 229.571335 223.943848 C 229.571335 224.277191 229.748428 224.568848 230.113007 224.818848 C 230.488007 225.068848 230.977585 225.313629 231.592178 225.548004 C 232.076553 225.730316 232.49321 225.938629 232.842178 226.173004 C 233.201553 226.396973 233.498428 226.714691 233.738007 227.131348 C 233.972382 227.537598 234.092178 228.058441 234.092178 228.693848 C 234.092178 229.235504 233.946335 229.735504 233.654678 230.193848 C 233.373428 230.652191 232.967178 231.021973 232.425507 231.298004 C 231.883835 231.563629 231.238007 231.693848 230.488007 231.693848 C 229.863007 231.693848 229.238007 231.600098 228.613007 231.423004 C 227.988007 231.245941 227.409882 230.959473 226.883835 230.568848 L 227.800507 228.964691 C 228.159882 229.230316 228.571335 229.454254 229.029678 229.631348 C 229.498428 229.798004 229.925507 229.881348 230.300507 229.881348 C 230.727585 229.881348 231.102585 229.792816 231.425507 229.610504 C 231.758835 229.417816 231.925507 229.110504 231.925507 228.693848 C 231.925507 228.152191 231.415085 227.683441 230.404678 227.277191 C 229.790085 227.042816 229.284882 226.813629 228.883835 226.589691 C 228.49321 226.370941 228.154678 226.058441 227.863007 225.652191 C 227.571335 225.235504 227.425507 224.725098 227.425507 224.110504 C 227.425507 223.193848 227.722382 222.464691 228.321335 221.923004 C 228.915085 221.370941 229.706757 221.063629 230.696335 221.006348 C 231.472382 221.006348 232.123428 221.100098 232.654678 221.277191 C 233.18071 221.459473 233.696335 221.709473 234.196335 222.027191 Z"/>
            </g>
        </g>
    </g>
    <g id="g19">
        <g id="g20">
            <g id="g21">
                <path id="path7" fill="#000000" stroke="none" d="M 252.761063 229.527191 L 249.261063 229.527191 L 248.406906 231.589691 L 246.365234 231.589691 L 251.115234 220.652191 L 251.219406 220.652191 L 255.969406 231.589691 L 253.573563 231.589691 Z M 252.073563 227.798004 L 251.052734 225.235504 L 249.990234 227.798004 Z"/>
            </g>
        </g>
    </g>
    <g id="g22">
        <g id="g23">
            <g id="g24">
                <path id="path8" fill="#000000" stroke="none" d="M 271.023773 221.068848 L 271.023773 231.589691 L 268.94046 231.589691 L 268.94046 221.068848 Z"/>
            </g>
        </g>
    </g>
    <g id="g25">
        <g id="g26">
            <g id="g27">
                <path id="path9" fill="#000000" stroke="none" d="M 287.253174 221.068848 L 287.253174 229.589691 L 292.190674 229.589691 L 292.190674 231.589691 L 285.16983 231.589691 L 285.16983 221.068848 Z"/>
            </g>
        </g>
    </g>
    <g id="g28">
        <g id="g29">
            <g id="g30">
                <path id="path10" fill="#000000" stroke="none" d="M 312.959167 221.068848 L 312.959167 223.068848 L 307.855011 223.068848 L 307.855011 225.318848 L 312.355011 225.318848 L 312.355011 227.318848 L 307.855011 227.318848 L 307.855011 229.589691 L 313.146667 229.589691 L 313.146667 231.589691 L 305.771667 231.589691 L 305.771667 221.068848 Z"/>
            </g>
        </g>
    </g>
    <g id="g31">
        <g id="g32">
            <g id="g33">
                <path id="path11" fill="#000000" stroke="none" d="M 332.355713 223.610504 C 331.439056 223.110504 330.636963 222.860504 329.9599 222.860504 C 329.501556 222.860504 329.1474 222.954254 328.8974 223.131348 C 328.6474 223.313629 328.5224 223.584473 328.5224 223.943848 C 328.5224 224.277191 328.699493 224.568848 329.064056 224.818848 C 329.439056 225.068848 329.92865 225.313629 330.543213 225.548004 C 331.027588 225.730316 331.444275 225.938629 331.793213 226.173004 C 332.152588 226.396973 332.449493 226.714691 332.689056 227.131348 C 332.923431 227.537598 333.043213 228.058441 333.043213 228.693848 C 333.043213 229.235504 332.8974 229.735504 332.605713 230.193848 C 332.324493 230.652191 331.918213 231.021973 331.376556 231.298004 C 330.8349 231.563629 330.189056 231.693848 329.439056 231.693848 C 328.814056 231.693848 328.189056 231.600098 327.564056 231.423004 C 326.939056 231.245941 326.360931 230.959473 325.8349 230.568848 L 326.751556 228.964691 C 327.110931 229.230316 327.5224 229.454254 327.980713 229.631348 C 328.449493 229.798004 328.876556 229.881348 329.251556 229.881348 C 329.67865 229.881348 330.05365 229.792816 330.376556 229.610504 C 330.7099 229.417816 330.876556 229.110504 330.876556 228.693848 C 330.876556 228.152191 330.36615 227.683441 329.355713 227.277191 C 328.74115 227.042816 328.235931 226.813629 327.8349 226.589691 C 327.444275 226.370941 327.105713 226.058441 326.814056 225.652191 C 326.5224 225.235504 326.376556 224.725098 326.376556 224.110504 C 326.376556 223.193848 326.673431 222.464691 327.2724 221.923004 C 327.86615 221.370941 328.657806 221.063629 329.6474 221.006348 C 330.423431 221.006348 331.074493 221.100098 331.605713 221.277191 C 332.131775 221.459473 332.6474 221.709473 333.1474 222.027191 Z"/>
            </g>
        </g>
    </g>
    <g id="g34">
        <g id="g35">
            <g id="g36">
                <path id="path12" fill="#000000" stroke="none" d="M 345.357941 230.568848 C 345.357941 230.277191 345.462128 230.037598 345.670441 229.839691 C 345.878784 229.631348 346.118378 229.527191 346.399628 229.527191 C 346.649628 229.527191 346.878784 229.631348 347.087128 229.839691 C 347.295441 230.037598 347.399628 230.277191 347.399628 230.568848 C 347.399628 230.860504 347.295441 231.105316 347.087128 231.298004 C 346.878784 231.495941 346.649628 231.589691 346.399628 231.589691 C 346.118378 231.589691 345.878784 231.501129 345.670441 231.318848 C 345.462128 231.126129 345.357941 230.876129 345.357941 230.568848 Z"/>
            </g>
        </g>
    </g>
    <g id="g37">
        <g id="g38">
            <g id="g39">
                <path id="path13" fill="#000000" stroke="none" d="M 368.299896 230.714691 C 368.034271 230.938629 367.612396 231.162598 367.029053 231.381348 C 366.44574 231.589691 365.810303 231.693848 365.13324 231.693848 C 364.034271 231.693848 363.075928 231.459473 362.25824 230.985504 C 361.450928 230.516754 360.831146 229.876129 360.404053 229.068848 C 359.971771 228.266754 359.75824 227.381348 359.75824 226.423004 C 359.75824 225.370941 359.971771 224.423004 360.404053 223.589691 C 360.831146 222.756348 361.430115 222.110504 362.19574 221.652191 C 362.971771 221.193848 363.867615 220.964691 364.88324 220.964691 C 365.518646 220.964691 366.112396 221.048004 366.654053 221.214691 C 367.19574 221.381348 367.674896 221.600098 368.091553 221.860504 L 367.25824 223.818848 C 366.50824 223.251129 365.737396 222.964691 364.94574 222.964691 C 364.41449 222.964691 363.91449 223.110504 363.44574 223.402191 C 362.987396 223.693848 362.617615 224.100098 362.341553 224.610504 C 362.060303 225.126129 361.924896 225.688629 361.924896 226.298004 C 361.924896 226.980316 362.049896 227.579254 362.299896 228.089691 C 362.560303 228.589691 362.930115 228.985504 363.404053 229.277191 C 363.888428 229.558441 364.44574 229.693848 365.07074 229.693848 C 365.596771 229.693848 366.060303 229.610504 366.466553 229.443848 C 366.88324 229.277191 367.206146 229.084473 367.44574 228.860504 Z"/>
            </g>
        </g>
    </g>
    <g id="g40">
        <g id="g41">
            <g id="g42">
                <path id="path14" fill="#000000" stroke="none" d="M 381.160217 226.339691 C 381.160217 225.396973 381.399811 224.506348 381.889404 223.673004 C 382.373779 222.839691 383.024811 222.183441 383.847717 221.693848 C 384.665436 221.209473 385.561279 220.964691 386.535217 220.964691 C 387.493561 220.964691 388.378967 221.209473 389.201904 221.693848 C 390.035217 222.183441 390.691467 222.839691 391.181061 223.673004 C 391.665436 224.506348 391.910217 225.396973 391.910217 226.339691 C 391.910217 227.313629 391.665436 228.209473 391.181061 229.027191 C 390.691467 229.850098 390.035217 230.501129 389.201904 230.985504 C 388.378967 231.459473 387.493561 231.693848 386.535217 231.693848 C 385.561279 231.693848 384.665436 231.459473 383.847717 230.985504 C 383.024811 230.501129 382.373779 229.850098 381.889404 229.027191 C 381.399811 228.209473 381.160217 227.313629 381.160217 226.339691 Z M 383.306061 226.339691 C 383.306061 226.954254 383.451904 227.516754 383.743561 228.027191 C 384.035217 228.542816 384.431061 228.954254 384.931061 229.256348 C 385.431061 229.548004 385.983154 229.693848 386.597717 229.693848 C 387.191467 229.693848 387.727936 229.548004 388.201904 229.256348 C 388.686279 228.954254 389.066467 228.548004 389.347717 228.048004 C 389.623779 227.537598 389.764404 226.964691 389.764404 226.339691 C 389.764404 225.714691 389.618561 225.146973 389.326904 224.631348 C 389.045654 224.120941 388.660217 223.714691 388.160217 223.423004 C 387.670654 223.120941 387.128967 222.964691 386.535217 222.964691 C 385.936279 222.964691 385.389404 223.120941 384.889404 223.423004 C 384.399811 223.714691 384.014404 224.120941 383.722717 224.631348 C 383.441467 225.146973 383.306061 225.714691 383.306061 226.339691 Z"/>
            </g>
        </g>
    </g>
    <g id="g43">
        <g id="g44">
            <g id="g45">
                <path id="path15" fill="#000000" stroke="none" d="M 416.256195 220.652191 L 416.256195 231.589691 L 414.193695 231.589691 L 414.193695 226.568848 L 410.756195 231.443848 L 410.735352 231.443848 L 407.422852 226.881348 L 407.422852 231.589691 L 405.422852 231.589691 L 405.422852 220.652191 L 405.443695 220.652191 L 410.777039 228.193848 L 416.235352 220.652191 Z"/>
            </g>
        </g>
    </g>
    <g id="g46">
        <g id="g47">
            <g id="g48">
                <path id="path16" fill="#000000" stroke="none" d="M 214.684555 264.59082 L 214.684555 265.674164 L 211.122055 265.674164 L 211.122055 267.570007 L 214.309555 267.570007 L 214.309555 268.674164 L 211.122055 268.674164 L 211.122055 270.59082 L 214.830383 270.59082 L 214.830383 271.695007 L 209.976227 271.695007 L 209.976227 264.59082 Z"/>
            </g>
        </g>
    </g>
    <g id="g49">
        <g id="g50">
            <g id="g51">
                <path id="path17" fill="#000000" stroke="none" d="M 224.039734 266.02832 C 223.425156 265.710632 222.883484 265.549164 222.414734 265.549164 C 222.050156 265.549164 221.768906 265.632507 221.560577 265.799164 C 221.362656 265.955414 221.268906 266.163757 221.268906 266.424164 C 221.268906 266.689789 221.393906 266.913757 221.643906 267.09082 C 221.904327 267.273132 222.268906 267.455414 222.727234 267.632507 C 223.086609 267.757507 223.393906 267.90332 223.643906 268.070007 C 223.893906 268.226257 224.091827 268.439789 224.248077 268.71582 C 224.414734 268.981445 224.498077 269.320007 224.498077 269.736664 C 224.498077 270.111664 224.399109 270.455414 224.206406 270.757507 C 224.024109 271.064789 223.753281 271.314789 223.393906 271.507507 C 223.029327 271.689789 222.607452 271.77832 222.123077 271.77832 C 221.690781 271.77832 221.268906 271.71582 220.852234 271.59082 C 220.435577 271.455414 220.065781 271.267914 219.748077 271.02832 L 220.248077 270.132507 C 220.482452 270.314789 220.768906 270.46582 221.102234 270.59082 C 221.435577 270.705414 221.737656 270.757507 222.018906 270.757507 C 222.362656 270.757507 222.664734 270.68457 222.914734 270.52832 C 223.175156 270.361664 223.310577 270.106445 223.310577 269.757507 C 223.310577 269.481445 223.195984 269.252289 222.977234 269.070007 C 222.768906 268.892914 222.466827 268.726257 222.081406 268.570007 C 221.675156 268.418945 221.336609 268.273132 221.060577 268.132507 C 220.794952 267.981445 220.565781 267.773132 220.373077 267.507507 C 220.190781 267.24707 220.102234 266.913757 220.102234 266.507507 C 220.102234 265.939789 220.294952 265.481445 220.685577 265.132507 C 221.070984 264.773132 221.591827 264.580414 222.248077 264.549164 C 222.716827 264.549164 223.128281 264.606445 223.477234 264.71582 C 223.836609 264.814789 224.169952 264.960632 224.477234 265.15332 Z"/>
            </g>
        </g>
    </g>
    <g id="g52">
        <g id="g53">
            <g id="g54">
                <path id="path18" fill="#000000" stroke="none" d="M 234.152573 264.59082 L 234.152573 265.674164 L 232.319244 265.674164 L 232.319244 271.695007 L 231.173401 271.695007 L 231.173401 265.674164 L 229.402573 265.674164 L 229.402573 264.59082 Z"/>
            </g>
        </g>
    </g>
    <g id="g55">
        <g id="g56">
            <g id="g57">
                <path id="path19" fill="#000000" stroke="none" d="M 239.504333 264.59082 L 241.525162 264.59082 C 242.410583 264.59082 243.150162 264.767914 243.733505 265.111664 C 244.316833 265.460632 244.738708 265.913757 245.004333 266.46582 C 245.28038 267.023132 245.421005 267.611664 245.421005 268.236664 C 245.421005 268.93457 245.254333 269.543945 244.921005 270.070007 C 244.598083 270.585632 244.171005 270.986664 243.629333 271.27832 C 243.087662 271.55957 242.493912 271.695007 241.858505 271.695007 L 239.504333 271.695007 Z M 241.671005 270.59082 C 242.171005 270.59082 242.613708 270.502289 243.004333 270.320007 C 243.389755 270.127289 243.691833 269.851257 243.900162 269.486664 C 244.118912 269.111664 244.233505 268.668945 244.233505 268.15332 C 244.233505 267.601257 244.113708 267.132507 243.879333 266.757507 C 243.639755 266.382507 243.337662 266.111664 242.962662 265.945007 C 242.598083 265.767914 242.223083 265.674164 241.837662 265.674164 L 240.650162 265.674164 L 240.650162 270.59082 Z"/>
            </g>
        </g>
    </g>
    <g id="g58">
        <g id="g59">
            <g id="g60"/>
        </g>
    </g>
    <g id="g61">
        <g id="g62">
            <g id="g63">
                <path id="path20" fill="#000000" stroke="none" d="M 261.91925 270.59082 L 261.91925 271.695007 L 257.41925 271.695007 L 257.773438 271.34082 C 258.424469 270.705414 258.929688 270.18457 259.29425 269.77832 C 259.66925 269.361664 259.971344 268.945007 260.210938 268.52832 C 260.460938 268.111664 260.585938 267.726257 260.585938 267.361664 C 260.585938 267.002289 260.471344 266.731445 260.252594 266.549164 C 260.04425 266.356445 259.778625 266.257507 259.460938 266.257507 C 259.111969 266.257507 258.841125 266.356445 258.648438 266.549164 C 258.466125 266.74707 258.377594 266.96582 258.377594 267.21582 C 258.377594 267.62207 258.502594 267.955414 258.752594 268.21582 L 258.065094 268.861664 C 257.8255 268.726257 257.632813 268.486664 257.48175 268.15332 C 257.341125 267.820007 257.273438 267.517914 257.273438 267.236664 C 257.273438 266.877289 257.361969 266.538757 257.54425 266.21582 C 257.736969 265.898132 258.013 265.648132 258.377594 265.46582 C 258.736969 265.273132 259.158844 265.174164 259.648438 265.174164 C 260.065094 265.174164 260.429688 265.273132 260.752594 265.46582 C 261.070313 265.648132 261.320313 265.898132 261.502594 266.21582 C 261.679688 266.538757 261.773438 266.882507 261.773438 267.257507 C 261.773438 267.632507 261.679688 268.002289 261.502594 268.361664 C 261.335938 268.726257 261.132813 269.064789 260.898438 269.382507 C 260.658844 269.689789 260.3255 270.09082 259.898438 270.59082 Z"/>
            </g>
        </g>
    </g>
    <g id="g64">
        <g id="g65">
            <g id="g66">
                <path id="path21" fill="#000000" stroke="none" d="M 269.338013 271.71582 C 268.806763 271.71582 268.338013 271.59082 267.921356 271.34082 C 267.515106 271.080414 267.197388 270.705414 266.963013 270.21582 C 266.72345 269.71582 266.608856 269.127289 266.608856 268.445007 C 266.608856 267.335632 266.84845 266.517914 267.338013 265.986664 C 267.822388 265.445007 268.489075 265.174164 269.338013 265.174164 C 269.84845 265.174164 270.306763 265.30957 270.713013 265.570007 C 271.1297 265.820007 271.452606 266.195007 271.6922 266.695007 C 271.926575 267.18457 272.046356 267.767914 272.046356 268.445007 C 272.046356 269.142914 271.926575 269.736664 271.6922 270.236664 C 271.452606 270.726257 271.1297 271.09082 270.713013 271.34082 C 270.306763 271.59082 269.84845 271.71582 269.338013 271.71582 Z M 269.3172 270.632507 C 269.827606 270.632507 270.213013 270.43457 270.463013 270.02832 C 270.72345 269.627289 270.858856 269.085632 270.858856 268.40332 C 270.858856 267.752289 270.72345 267.231445 270.463013 266.84082 C 270.213013 266.455414 269.827606 266.267914 269.3172 266.27832 C 268.8172 266.267914 268.431763 266.460632 268.171356 266.861664 C 267.921356 267.252289 267.796356 267.77832 267.796356 268.445007 C 267.796356 269.111664 267.921356 269.648132 268.171356 270.049164 C 268.431763 270.439789 268.8172 270.632507 269.3172 270.632507 Z"/>
            </g>
        </g>
    </g>
    <g id="g67">
        <g id="g68">
            <g id="g69">
                <path id="path22" fill="#000000" stroke="none" d="M 281.30838 270.59082 L 281.30838 271.695007 L 276.80838 271.695007 L 277.162537 271.34082 C 277.813568 270.705414 278.318787 270.18457 278.68338 269.77832 C 279.05838 269.361664 279.360443 268.945007 279.600037 268.52832 C 279.850037 268.111664 279.975037 267.726257 279.975037 267.361664 C 279.975037 267.002289 279.860443 266.731445 279.641693 266.549164 C 279.43338 266.356445 279.167755 266.257507 278.850037 266.257507 C 278.501068 266.257507 278.230255 266.356445 278.037537 266.549164 C 277.855255 266.74707 277.766693 266.96582 277.766693 267.21582 C 277.766693 267.62207 277.891693 267.955414 278.141693 268.21582 L 277.454193 268.861664 C 277.21463 268.726257 277.021912 268.486664 276.87088 268.15332 C 276.730255 267.820007 276.662537 267.517914 276.662537 267.236664 C 276.662537 266.877289 276.751068 266.538757 276.93338 266.21582 C 277.126068 265.898132 277.40213 265.648132 277.766693 265.46582 C 278.126068 265.273132 278.547943 265.174164 279.037537 265.174164 C 279.454193 265.174164 279.818787 265.273132 280.141693 265.46582 C 280.459412 265.648132 280.709412 265.898132 280.891693 266.21582 C 281.068787 266.538757 281.162537 266.882507 281.162537 267.257507 C 281.162537 267.632507 281.068787 268.002289 280.891693 268.361664 C 280.725037 268.726257 280.521912 269.064789 280.287537 269.382507 C 280.047943 269.689789 279.71463 270.09082 279.287537 270.59082 Z"/>
            </g>
        </g>
    </g>
    <g id="g70">
        <g id="g71">
            <g id="g72">
                <path id="path23" fill="#000000" stroke="none" d="M 290.602142 269.34082 L 290.602142 270.195007 L 289.789642 270.195007 L 289.789642 271.695007 L 288.664642 271.695007 L 288.664642 270.195007 L 285.789642 270.195007 L 289.789642 265.174164 L 289.789642 269.34082 Z M 288.664642 269.34082 L 288.664642 267.77832 L 287.456299 269.34082 Z"/>
            </g>
        </g>
    </g>
</svg>
